PathFileType	4	(X/Y/Z)	HSS_walk4.trc
DataRate	CameraRate	NumFrames	NumMarkers	Units	OrigDataRate	OrigDataStartFrame	OrigNumFrames
120.0	120.0	4	44	mm	120.0	289	1155
Frame#	Time		R.Shoulder		Offset		L.Shoulder		R.Elbow		R.Wrist.Radial		R.Wrist		R.Hand		L.Elbow		L.Wrist.Radial		L.Wrist		L.Hand		R.Hip		V.Sacral		L.PSIS		L.Hip		R.Thigh.Upper		R.Thigh.Front		R.Thigh.Rear		X.Shell.Lower.Thigh.Right		R.Knee.Lateral		R.Shank.Upper		R.Shank.Front		R.Shank.Rear		X.Shell.Lower.Shank.Right		R.Ankle.Lateral		R.Heel		R.Toe		L.Thigh.Upper		L.Thigh.Front		L.Thigh.Rear		X.Shell.Lower.Thigh.Left		L.Knee.Lateral		L.Shank.Upper		L.Shank.Front		L.Shank.Rear		X.Shell.Lower.Shank.Left		L.Ankle.Lateral		L.Heel		L.Toe		R.Troc		L.Troc		R.PSIS		L.ASIS		R.ASIS
			X1	Y1	Z1	X2	Y2	Z2	X3	Y3	Z3	X4	Y4	Z4	X5	Y5	Z5	X6	Y6	Z6	X7	Y7	Z7	X8	Y8	Z8	X9	Y9	Z9	X10	Y10	Z10	X11	Y11	Z11	X12	Y12	Z12	X13	Y13	Z13	X14	Y14	Z14	X15	Y15	Z15	X16	Y16	Z16	X17	Y17	Z17	X18	Y18	Z18	X19	Y19	Z19	X20	Y20	Z20	X21	Y21	Z21	X22	Y22	Z22	X23	Y23	Z23	X24	Y24	Z24	X25	Y25	Z25	X26	Y26	Z26	X27	Y27	Z27	X28	Y28	Z28	X29	Y29	Z29	X30	Y30	Z30	X31	Y31	Z31	X32	Y32	Z32	X33	Y33	Z33	X34	Y34	Z34	X35	Y35	Z35	X36	Y36	Z36	X37	Y37	Z37	X38	Y38	Z38	X39	Y39	Z39	X40	Y40	Z40	X41	Y41	Z41	X42	Y42	Z42	X43	Y43	Z43	X44	Y44	Z44

289	2.40000	-1853.11609	1476.53784	-22.58221	-1963.25964	1386.53479	-319.45700	-1833.57092	1486.88440	-398.67245	-1869.45349	1108.70325	19.90465	-1753.13489	889.36157	65.24451	-1719.78564	899.25739	-0.28782	-1701.22778	819.15912	56.42939	-1842.28821	1120.78955	-447.53470	-1720.58728	912.28113	-464.21170	-1704.40930	911.38672	-392.48083	-1674.21680	841.78857	-440.16098	-1811.91968	1037.82385	-56.51894	-1925.32703	1021.59003	-209.49797	-1922.19202	1027.38818	-249.99678	-1799.89099	1036.41907	-353.38297	-1774.27942	693.09338	-23.36040	-1741.72058	655.56903	-39.45224	-1798.60388	654.85400	-15.90094	-1771.55957	622.00903	-34.12404	-1837.39661	515.67035	-49.73145	-1858.51196	367.65558	-4.02498	-1833.31885	323.26703	-27.90185	-1892.10693	333.03833	-16.63792	-1871.39636	291.97101	-26.26009	-1892.48706	70.33698	-78.02427	-1934.59155	33.22878	-128.35114	-1739.06750	31.71749	-70.79712	-1751.93579	692.17389	-371.16605	-1735.13660	642.86267	-346.17859	-1781.88428	656.76324	-386.31934	-1758.40735	621.65594	-371.49149	-1831.34741	507.55029	-352.27820	-1870.22266	306.45889	-391.89291	-1842.26819	282.74393	-370.82980	-1901.84241	268.64661	-377.80524	-1879.82764	237.12125	-378.29373	-1872.85449	72.53522	-329.63110	-1928.56201	34.98753	-283.28757	-1729.11853	32.20419	-319.98721	-1800.06396	879.73248	-19.86352	-1791.35742	892.55579	-387.95917	-1926.97375	1026.45959	-164.90404	-1735.38696	1000.89313	-310.55151	-1749.85657	1000.98901	-84.85330
290	2.40833	-1853.19824	1476.54504	-22.56921	-1963.36255	1386.56213	-319.43906	-1833.53967	1486.88184	-398.54752	-1869.53979	1108.68579	19.88092	-1753.11792	889.34412	65.15459	-1719.81104	899.32477	-0.35959	-1701.20020	819.18372	56.28693	-1842.38257	1120.81812	-447.53278	-1720.69409	912.28571	-464.22449	-1704.11096	911.36749	-393.16922	-1674.33093	841.78607	-440.24295	-1812.06909	1037.81396	-56.47888	-1925.46680	1021.59253	-209.47791	-1922.30981	1027.35474	-249.98114	-1800.06213	1036.41064	-353.39011	-1774.36230	693.09619	-23.36981	-1741.78748	655.60400	-39.41861	-1798.67261	654.88104	-15.85870	-1771.61877	622.05847	-34.07097	-1837.40186	515.46393	-49.50795	-1858.53613	367.64841	-4.00515	-1833.35364	323.24020	-27.92606	-1892.12134	333.02298	-16.60833	-1871.39636	291.96085	-26.24504	-1892.49255	70.30252	-78.02590	-1934.59082	33.19988	-128.34608	-1739.10181	31.75092	-70.80555	-1752.10950	692.21191	-371.12885	-1735.28235	642.92841	-346.17999	-1782.01514	656.76440	-386.25043	-1758.50952	621.65808	-371.49109	-1831.39673	507.55255	-352.27628	-1870.29724	306.46353	-391.87228	-1842.33960	282.74213	-370.81458	-1901.90442	268.64908	-377.76550	-1879.85352	237.13152	-378.28156	-1872.89441	72.54390	-329.60919	-1928.56299	34.96870	-283.30447	-1729.14868	32.20566	-319.94324	-1800.16016	879.74255	-19.87118	-1791.51184	892.59680	-387.90237	-1927.09192	1026.47498	-164.87929	-1735.43616	1000.95679	-310.50229	-1749.89709	1001.09692	-84.84608
291	2.41667	-1853.29614	1476.53381	-22.55569	-1963.47778	1386.58252	-319.42682	-1833.63489	1486.86755	-398.50104	-1869.61340	1108.66663	19.87560	-1753.07837	889.35162	65.00113	-1719.81177	899.35687	-0.50085	-1701.14319	819.18799	56.10783	-1842.47205	1120.82422	-447.53809	-1720.76978	912.30670	-464.22198	-1704.65186	911.46942	-392.59470	-1674.45056	841.82617	-440.24039	-1812.23975	1037.78406	-56.45128	-1925.58179	1021.57904	-209.43575	-1922.41223	1027.33997	-249.92805	-1800.31311	1036.39453	-353.43893	-1774.40845	693.11823	-23.36481	-1741.84338	655.61829	-39.42679	-1798.72058	654.88409	-15.84283	-1771.69861	622.07721	-34.06358	-1837.43103	515.46527	-49.51858	-1858.56311	367.63510	-3.99419	-1833.36792	323.22867	-27.91064	-1892.13489	332.98077	-16.65680	-1871.39429	291.91818	-26.27140	-1892.46484	70.26693	-78.08755	-1934.58728	33.20284	-128.33806	-1739.07324	31.73706	-70.80558	-1752.24866	692.22040	-371.20377	-1735.39600	642.91400	-346.23074	-1782.12463	656.77362	-386.26071	-1758.60864	621.70319	-371.54648	-1831.46545	507.55341	-352.25925	-1870.38354	306.45111	-391.83310	-1842.41089	282.77298	-370.84985	-1901.93884	268.62918	-377.76245	-1879.93555	237.15785	-378.24750	-1872.91479	72.56165	-329.58752	-1928.55591	34.96873	-283.31055	-1729.12024	32.21561	-319.98608	-1800.26025	879.75177	-19.83700	-1791.69470	892.60986	-387.90552	-1927.21765	1026.47144	-164.83969	-1735.63745	1000.97906	-310.53296	-1750.19458	1001.05676	-84.81179
292	2.42500	-1853.40662	1476.53491	-22.50663	-1963.55676	1386.59131	-319.41302	-1833.73804	1486.85657	-398.51111	-1869.68799	1108.65112	19.86394	-1753.07471	889.30493	64.88517	-1719.84753	899.39856	-0.63558	-1701.13013	819.21027	55.96230	-1842.57166	1120.84204	-447.51678	-1720.90930	912.31226	-464.25705	-1704.58887	911.49902	-392.60782	-1674.61426	841.80585	-440.26855	-1812.17859	1037.79907	-56.45880	-1925.69617	1021.60547	-209.38635	-1922.54590	1027.35571	-249.93449	-1800.44397	1036.38953	-353.38730	-1774.48035	693.11102	-23.34356	-1741.91577	655.61938	-39.42130	-1798.78149	654.91040	-15.80590	-1771.73267	622.06470	-34.09111	-1837.42688	515.62915	-49.71716	-1858.57788	367.60413	-3.98560	-1833.37634	323.19391	-27.91427	-1892.15649	332.95926	-16.59719	-1871.42017	291.87949	-26.22586	-1892.49878	70.34366	-78.00898	-1934.60095	33.18564	-128.33522	-1739.07581	31.74750	-70.81353	-1752.36853	692.22156	-371.16684	-1735.58521	642.88727	-346.04166	-1782.22754	656.78461	-386.32571	-1758.73865	621.65826	-371.38773	-1831.51697	507.56061	-352.23813	-1870.46655	306.45004	-391.79797	-1842.47180	282.74829	-370.80283	-1901.98438	268.62671	-377.74823	-1880.00623	237.15480	-378.22824	-1872.96191	72.54853	-329.62125	-1928.54614	34.93757	-283.30618	-1729.17737	32.20301	-319.97113	-1800.36926	879.76715	-19.80918	-1791.80164	892.62958	-387.91315	-1927.36316	1026.48340	-164.79866	-1735.77039	1001.01501	-310.54108	-1750.43213	1001.04840	-84.73973
